<?xml version="1.0" encoding="UTF-8" standalone="no"?>
<svg width="366px" height="313px" viewBox="0 0 366 313" version="1.1" xmlns="http://www.w3.org/2000/svg" xmlns:xlink="http://www.w3.org/1999/xlink">
    <!-- Generator: Sketch 3.8.1 (29687) - http://www.bohemiancoding.com/sketch -->
    <title>Logo</title>
    <desc>Created with Sketch.</desc>
    <defs></defs>
    <g id="Page-1" stroke="none" stroke-width="1" fill="none" fill-rule="evenodd">
        <g id="Base-Copy" transform="translate(-117.000000, -144.000000)" fill="#6336FF">
            <path d="M234.466578,255.850334 C234.477345,256.312711 234.482759,256.776413 234.482759,257.241379 C234.482759,289.616692 208.237382,315.862069 175.862069,315.862069 C143.486756,315.862069 117.241379,289.616692 117.241379,257.241379 C117.241379,224.866066 143.486756,198.62069 175.862069,198.62069 C187.259041,198.62069 197.896375,201.873089 206.896552,207.500369 L206.896552,158.616689 C206.896552,151.001178 213.07026,144.827586 220.689655,144.827586 C228.307376,144.827586 234.482759,151.004825 234.482759,158.616689 L234.482759,255.176415 C234.482759,255.402365 234.477324,255.627046 234.466578,255.850334 Z M351.724138,267.586214 L351.724138,319.310345 C351.724138,347.876797 328.572734,371.034483 300,371.034483 C271.433547,371.034483 248.275862,347.883078 248.275862,319.310345 L248.275862,267.586207 C248.275862,259.968486 254.451245,253.793103 262.068966,253.793103 C269.686686,253.793103 275.862069,259.968486 275.862069,267.586207 L275.862069,319.304397 C275.862069,332.633767 286.668989,343.448276 300,343.448276 C313.333942,343.448276 324.137931,332.638693 324.137931,319.304397 L324.137931,267.586207 C324.137931,259.968486 330.313314,253.793103 337.931034,253.793103 C345.548755,253.793103 351.724138,259.968486 351.724138,267.586207 Z M180.680731,380.733937 C184.222286,378.079539 192.078394,375.527849 198.760607,382.027883 C205.469467,388.553837 235.344837,428.420662 299.310345,428.965517 C363.275853,429.510372 396.289712,384.151166 401.287538,380.733937 C409.803167,374.911436 416.372229,379.287109 419.059969,381.622441 C421.74771,383.957773 425.165838,389.802331 422.350812,397.303004 C419.462749,404.998289 374.504301,456.551725 299.310345,456.551724 C224.116389,456.551724 186.240278,410.136122 179.105267,401.468885 C170.978583,391.597017 177.139177,383.388335 180.680731,380.733937 Z M424.137931,315.862069 C456.513244,315.862069 482.758621,289.616692 482.758621,257.241379 C482.758621,224.866066 456.513244,198.62069 424.137931,198.62069 C391.762618,198.62069 365.517241,224.866066 365.517241,257.241379 C365.517241,289.616692 391.762618,315.862069 424.137931,315.862069 Z M424.137931,288.275862 C441.277803,288.275862 455.172414,274.381251 455.172414,257.241379 C455.172414,240.101508 441.277803,226.206897 424.137931,226.206897 C406.998059,226.206897 393.103448,240.101508 393.103448,257.241379 C393.103448,274.381251 406.998059,288.275862 424.137931,288.275862 Z M175.862069,288.275862 C193.001941,288.275862 206.896552,274.381251 206.896552,257.241379 C206.896552,240.101508 193.001941,226.206897 175.862069,226.206897 C158.722197,226.206897 144.827586,240.101508 144.827586,257.241379 C144.827586,274.381251 158.722197,288.275862 175.862069,288.275862 Z" id="Logo"></path>
        </g>
    </g>
</svg>